<svg width="13" height="15" viewBox="0 0 13 15" fill="none" xmlns="http://www.w3.org/2000/svg">
<path d="M1 5.33333H12M9.25 1V2.44444M3.75 1V2.44444M3.20013 2.44444H9.80014C10.5702 2.44444 10.955 2.44444 11.2491 2.60188C11.5078 2.74036 11.7185 2.96135 11.8503 3.23314C12.0001 3.54212 12 3.94656 12 4.75552V11.6889C12 12.4978 12.0001 12.9024 11.8503 13.2114C11.7185 13.4831 11.5078 13.7041 11.2491 13.8425C10.955 14 10.5702 14 9.80014 14H3.20013C2.43006 14 2.04474 14 1.75061 13.8425C1.49189 13.7041 1.28169 13.4831 1.14987 13.2114C1 12.9024 1 12.4978 1 11.6889V4.75552C1 3.94656 1 3.54212 1.14987 3.23314C1.28169 2.96135 1.49189 2.74036 1.75061 2.60188C2.04474 2.44444 2.43006 2.44444 3.20013 2.44444Z" stroke="#212529" stroke-width="1.5" stroke-linecap="round" stroke-linejoin="round"/>
</svg>
